<svg id="Layer_35" enable-background="new 0 0 64 64" height="512" viewBox="0 0 64 64" width="512" xmlns="http://www.w3.org/2000/svg" xmlns:xlink="http://www.w3.org/1999/xlink"><linearGradient id="SVGID_1_" gradientUnits="userSpaceOnUse" x1="32" x2="32" y1="63" y2="1"><stop offset="0" stop-color="#9f2fff"/><stop offset="1" stop-color="#0bb1d3"/></linearGradient><path d="m59 55.101v-1.101c0-2.757-2.243-5-5-5h-10.895l.429-4.291c.232-2.327 1.923-4.23 4.204-4.737l5.262-1.17v-.802c0-3.403-2.306-6.357-5.608-7.183l-10.392-2.598v-1.984c1.069-.859 1.91-1.986 2.427-3.278 2.554-.221 4.573-2.346 4.573-4.957v-5c0-6.617-5.383-12-12-12s-12 5.383-12 12v5c0 2.611 2.019 4.736 4.573 4.957.516 1.293 1.358 2.419 2.427 3.278v1.984l-10.392 2.599c-3.302.825-5.608 3.779-5.608 7.182v.802l5.262 1.17c2.281.507 3.972 2.41 4.204 4.737l.429 4.291h-10.895c-2.757 0-5 2.243-5 5v1.101c-2.279.465-4 2.485-4 4.899v3h62v-3c0-2.414-1.721-4.434-4-4.899zm-19.043-34.272c.028-.272.043-.549.043-.829v-4.816c1.161.414 2 1.514 2 2.816 0 1.318-.86 2.427-2.043 2.829zm-7.957-17.829c5.514 0 10 4.486 10 10v1.026c-.838-.635-1.87-1.026-3-1.026-1.667 0-3.235-.649-4.414-1.828l-1.586-1.586-.707.707c-1.746 1.746-4.066 2.707-6.535 2.707h-.758c-1.13 0-2.162.391-3 1.026v-1.026c0-5.514 4.486-10 10-10zm-10 15c0-1.302.839-2.402 2-2.816v4.816c0 .28.015.557.043.829-1.183-.402-2.043-1.511-2.043-2.829zm4 2v-5.01c2.577-.054 5.012-.964 6.969-2.606l.203.202c1.318 1.318 3.005 2.128 4.828 2.347v5.067c0 3.309-2.691 6-6 6s-6-2.691-6-6zm-9.305 18.019-3.638-.808c.313-2.142 1.885-3.916 4.035-4.454l11.908-2.976v-2.37c.927.377 1.939.589 3 .589s2.073-.212 3-.589v2.37l11.907 2.976c2.15.538 3.722 2.312 4.035 4.454l-3.638.808c-1.771.394-3.265 1.415-4.299 2.794-.321.115-.656.187-1.005.187h-6c-1.654 0-3-1.346-3-3h-2c0 1.654-1.346 3-3 3h-6c-.348 0-.683-.072-1.006-.188-1.035-1.379-2.528-2.4-4.299-2.793zm5.761 6.491c-.052-.524-.177-1.023-.332-1.51h5.876c1.641 0 3.088-.806 4-2.031.912 1.225 2.359 2.031 4 2.031h5.876c-.155.486-.279.986-.332 1.51l-.449 4.49h-18.19zm-12.456 6.49h11.095 21.811 11.094c1.654 0 3 1.346 3 3v1h-50v-1c0-1.654 1.346-3 3-3zm51 10h-58v-1c0-1.654 1.346-3 3-3h52c1.654 0 3 1.346 3 3zm-23.64-26.506-1.939-.485.486-1.939 1.939.485zm3.882.97-1.94-.485.484-1.939 1.94.485zm3.881.97-1.94-.485.484-1.939 1.94.485z" fill="url(#SVGID_1_)"/></svg>