<?xml version="1.0" standalone="no"?><svg xmlns="http://www.w3.org/2000/svg" viewBox="0 0 1440 320"><path fill="#2d2b57 " fill-opacity="0.05" d="M0,32L24,74.7C48,117,96,203,144,213.3C192,224,240,160,288,144C336,128,384,160,432,154.7C480,149,528,107,576,122.7C624,139,672,213,720,224C768,235,816,181,864,165.3C912,149,960,171,1008,176C1056,181,1104,171,1152,154.7C1200,139,1248,117,1296,96C1344,75,1392,53,1416,42.7L1440,32L1440,0L1416,0C1392,0,1344,0,1296,0C1248,0,1200,0,1152,0C1104,0,1056,0,1008,0C960,0,912,0,864,0C816,0,768,0,720,0C672,0,624,0,576,0C528,0,480,0,432,0C384,0,336,0,288,0C240,0,192,0,144,0C96,0,48,0,24,0L0,0Z"></path></svg>